<svg xmlns="http://www.w3.org/2000/svg" xmlns:xlink="http://www.w3.org/1999/xlink" fill="none" version="1.1" width="837" height="854" viewBox="0 0 837 854"><defs><filter id="master_svg0_0_1263" filterUnits="objectBoundingBox" color-interpolation-filters="sRGB" x="-300" y="-300" width="987" height="987"><feFlood flood-opacity="0" result="BackgroundImageFix"/><feBlend mode="normal" in="SourceGraphic" in2="BackgroundImageFix" result="shape"/><feGaussianBlur stdDeviation="75" result="effect1_foregroundBlur"/></filter><mask id="master_svg1_0_1266"><g style="mix-blend-mode:passthrough"><ellipse cx="418.5" cy="418.5" rx="208.5" ry="208.5" fill="#FFFFFF" fill-opacity="1"/></g></mask><linearGradient x1="0.5" y1="-3.0616171314629196e-17" x2="0.5" y2="1" id="master_svg2_0_1268"><stop offset="0%" stop-color="#4D64DE" stop-opacity="1"/><stop offset="100%" stop-color="#B5C0FF" stop-opacity="1"/></linearGradient><linearGradient x1="0.07692305743694305" y1="0.07467532902956009" x2="0.6971153616905212" y2="1.149350643157959" id="master_svg3_0_1275"><stop offset="0%" stop-color="#B5C0FF" stop-opacity="1"/><stop offset="100%" stop-color="#5464DA" stop-opacity="1"/></linearGradient><linearGradient x1="0.5" y1="-3.0616171314629196e-17" x2="0.5" y2="1" id="master_svg4_0_1289"><stop offset="0%" stop-color="#B0BCFF" stop-opacity="1"/><stop offset="100%" stop-color="#B0BCFF" stop-opacity="0"/></linearGradient><linearGradient x1="0.5" y1="-3.0616171314629196e-17" x2="0.5" y2="1" id="master_svg5_0_1289"><stop offset="0%" stop-color="#B0BCFF" stop-opacity="1"/><stop offset="100%" stop-color="#B0BCFF" stop-opacity="0"/></linearGradient><linearGradient x1="0.5" y1="-3.0616171314629196e-17" x2="0.5" y2="1" id="master_svg6_0_1293"><stop offset="0%" stop-color="#B0BCFF" stop-opacity="0.5299999713897705"/><stop offset="100%" stop-color="#B0BCFF" stop-opacity="0"/></linearGradient></defs><g style="mix-blend-mode:passthrough"><g style="mix-blend-mode:passthrough"><g style="mix-blend-mode:passthrough" filter="url(#master_svg0_0_1263)"><ellipse cx="418.5" cy="418.5" rx="193.5" ry="193.5" fill="#C1CBFF" fill-opacity="1"/></g><g style="mix-blend-mode:passthrough"><ellipse cx="418.5" cy="418.5" rx="221.5" ry="221.5" fill="#EFF2FF" fill-opacity="1"/><ellipse cx="418.5" cy="418.5" rx="215.5" ry="215.5" fill-opacity="0" stroke-opacity="1" stroke="#FFFFFF" fill="none" stroke-width="12"/></g><g style="mix-blend-mode:passthrough" mask="url(#master_svg1_0_1266)"><g style="mix-blend-mode:passthrough"><path d="M393.6132,340.7446L393.6132,329.8867Q393.6132,329.3004,393.6419,328.7147Q393.6707,328.129,393.7282,327.5454Q393.7857,326.9619,393.8717,326.3818Q393.9577,325.8018,394.0721,325.2267Q394.1865,324.6515,394.329,324.0827Q394.4715,323.5139,394.6417,322.9528Q394.8119,322.3916,395.0095,321.8395Q395.207,321.2874,395.4314,320.7456Q395.6558,320.2039,395.9065,319.6738Q396.1573,319.1437,396.4337,318.6266Q396.7101,318.1094,397.0116,317.6064Q397.313,317.1035,397.6388,316.6159Q397.9646,316.1284,398.3139,315.65736Q398.6632,315.18637,399.03520000000003,314.73308Q399.4072,314.2798,399.801,313.84531Q400.1948,313.41083,400.6095,312.99619Q401.0241,312.58154,401.4586,312.18775Q401.8931,311.79396,402.3464,311.42195Q402.7996,311.04995,403.2706,310.70064Q403.7416,310.35133,404.2292,310.02555Q404.7167,309.69977,405.2197,309.3983Q405.72270000000003,309.09684,406.2398,308.82042Q406.757,308.54399,407.2871,308.29328Q407.8172,308.04257,408.3589,307.81816Q408.90070000000003,307.59376,409.4528,307.39621Q410.0049,307.19867,410.56600000000003,307.02845Q411.1272,306.858226,411.696,306.715745Q412.2648,306.573264,412.8399,306.458865Q413.415,306.344466,413.9951,306.258425Q414.5751,306.172384,415.1587,306.114907Q415.7423,306.0574311,416.3279,306.0286583Q416.9136,305.999885559,417.5,305.999885559Q418.0864,305.999885559,418.6721,306.0286583Q419.2578,306.0574311,419.8413,306.114907Q420.4249,306.172384,421.0049,306.258425Q421.585,306.344466,422.1601,306.458865Q422.7352,306.573264,423.3041,306.715745Q423.8729,306.858226,424.43399999999997,307.02845Q424.9951,307.19867,425.5473,307.39621Q426.0994,307.59376,426.6411,307.81816Q427.1829,308.04257,427.71299999999997,308.29328Q428.2431,308.54399,428.7602,308.82042Q429.2774,309.09684,429.7803,309.3983Q430.2833,309.69977,430.7708,310.02555Q431.2584,310.35133,431.7294,310.70064Q432.2004,311.04995,432.6537,311.42195Q433.10699999999997,311.79396,433.5415,312.18775Q433.9759,312.58154,434.3906,312.99619Q434.8052,313.41083,435.199,313.84531Q435.5928,314.2798,435.96479999999997,314.73308Q436.3368,315.18637,436.6861,315.65736Q437.0354,316.1284,437.3612,316.6159Q437.687,317.1035,437.9885,317.6064Q438.2899,318.1094,438.5663,318.6266Q438.8428,319.1437,439.0935,319.6738Q439.3442,320.2039,439.5686,320.7456Q439.793,321.2874,439.9905,321.8395Q440.1881,322.3916,440.3583,322.9528Q440.5285,323.5139,440.671,324.0827Q440.8135,324.6515,440.9279,325.2267Q441.0423,325.8018,441.12829999999997,326.3818Q441.2144,326.9619,441.2719,327.5454Q441.3293,328.129,441.3581,328.7147Q441.38689999999997,329.3004,441.38689999999997,329.8867L441.38689999999997,340.7446L453.11310000000003,340.7446Q453.6995,340.7446,454.28520000000003,340.7734Q454.8709,340.80219999999997,455.4545,340.8597Q456.038,340.9171,456.6181,341.0032Q457.1981,341.0892,457.7732,341.2036Q458.348,341.318,458.91700000000003,341.4605Q459.486,341.603,460.047,341.7732Q460.608,341.9434,461.15999999999997,342.141Q461.712,342.3385,462.254,342.5629Q462.796,342.7873,463.326,343.038Q463.856,343.2887,464.373,343.5652Q464.89,343.84159999999997,465.39300000000003,344.14300000000003Q465.896,344.4445,466.384,344.7703Q466.872,345.0961,467.343,345.4454Q467.81399999999996,345.7947,468.267,346.1667Q468.72,346.5387,469.155,346.9325Q469.589,347.3263,470.004,347.7409Q470.418,348.1556,470.812,348.5901Q471.206,349.0245,471.578,349.4778Q471.95,349.9311,472.299,350.4021Q472.649,350.8731,472.974,351.3607Q473.3,351.8482,473.602,352.3512Q473.903,352.8541,474.179,353.3713Q474.456,353.8884,474.707,354.4185Q474.957,354.9486,475.182,355.4904Q475.406,356.0321,475.604,356.5842Q475.801,357.1364,475.971,357.6975Q476.142,358.2586,476.284,358.8274Q476.427,359.3963,476.541,359.9714Q476.655,360.5465,476.741,361.1266Q476.827,361.7066,476.885,362.2902Q476.942,362.8737,476.971,363.4594Q477,364.0451,477,364.6315Q477,365.2179,476.971,365.8036Q476.942,366.3892,476.885,366.9728Q476.827,367.5564,476.741,368.1364Q476.655,368.7165,476.541,369.2916Q476.427,369.8667,476.284,370.4355Q476.142,371.0043,475.971,371.5655Q475.801,372.1266,475.604,372.6787Q475.406,373.2308,475.182,373.7726Q474.957,374.3144,474.707,374.8444Q474.456,375.3745,474.179,375.8917Q473.903,376.4088,473.602,376.91179999999997Q473.3,377.4148,472.974,377.90229999999997Q472.649,378.3899,472.299,378.8609Q471.95,379.3319,471.578,379.78520000000003Q471.206,380.2384,470.812,380.6729Q470.418,381.1074,470.004,381.5221Q469.589,381.9367,469.155,382.33050000000003Q468.72,382.72429999999997,468.267,383.0963Q467.81399999999996,383.4683,467.343,383.81759999999997Q466.872,384.1669,466.384,384.4927Q465.896,384.8185,465.39300000000003,385.11990000000003Q464.89,385.4214,464.373,385.69780000000003Q463.856,385.97429999999997,463.326,386.225Q462.796,386.4757,462.254,386.7001Q461.712,386.92449999999997,461.15999999999997,387.122Q460.608,387.3196,460.047,387.4898Q459.486,387.65999999999997,458.91700000000003,387.8025Q458.348,387.945,457.7732,388.0594Q457.1981,388.1738,456.6181,388.2598Q456.038,388.34590000000003,455.4545,388.4033Q454.8709,388.4608,454.28520000000003,388.4896Q453.6995,388.5184,453.11310000000003,388.5184L381.8869,388.5184Q381.3005,388.5184,380.7148,388.4896Q380.1291,388.4608,379.5455,388.4033Q378.962,388.34590000000003,378.3819,388.2598Q377.8019,388.1738,377.2268,388.0594Q376.6516,387.945,376.0828,387.8025Q375.514,387.65999999999997,374.9529,387.4898Q374.3917,387.3196,373.8396,387.122Q373.2875,386.92449999999997,372.7458,386.7001Q372.204,386.4757,371.6739,386.225Q371.1438,385.9742,370.6267,385.69780000000003Q370.1095,385.4214,369.6066,385.11990000000003Q369.10360000000003,384.8185,368.616,384.4927Q368.1285,384.1669,367.65747,383.81759999999997Q367.18648,383.4683,366.7332,383.0963Q366.27991,382.72429999999997,365.84543,382.33050000000003Q365.41094,381.9367,364.9963,381.522Q364.58166,381.1074,364.18786,380.6729Q363.79407,380.2384,363.42207,379.7851Q363.05007,379.3319,362.70075,378.8609Q362.35144,378.3899,362.02566,377.90229999999997Q361.69988,377.4147,361.39842,376.91179999999997Q361.09695,376.4088,360.82053,375.8917Q360.54411,375.3745,360.29339,374.8444Q360.04268,374.3143,359.81828,373.7726Q359.59388,373.2308,359.39633,372.6787Q359.19878,372.1266,359.02856,371.5655Q358.85834,371.0043,358.715859,370.4355Q358.573378,369.8667,358.458979,369.2916Q358.34458,368.7165,358.258539,368.1364Q358.172498,367.5564,358.115022,366.9728Q358.0575455,366.3893,358.0287728,365.8036Q358,365.2179,358,364.6315Q358,364.0451,358.0287728,363.4594Q358.0575455,362.8737,358.115022,362.2902Q358.172498,361.7066,358.258539,361.1266Q358.34458,360.5465,358.458979,359.9714Q358.573378,359.3963,358.715859,358.8274Q358.85834,358.2586,359.02856,357.6975Q359.19878,357.1364,359.39633,356.5842Q359.59388,356.0321,359.81828,355.4904Q360.04268,354.9486,360.29339,354.4185Q360.54411,353.8884,360.82053,353.3713Q361.09695,352.8541,361.39842,352.3512Q361.69988,351.8482,362.02566,351.3607Q362.35144,350.8731,362.70075,350.4021Q363.05007,349.9311,363.42207,349.4778Q363.79407,349.0245,364.18786,348.5901Q364.58166,348.1556,364.9963,347.7409Q365.41094,347.3263,365.84543,346.9325Q366.27991,346.5387,366.7332,346.1667Q367.18648,345.7947,367.65747,345.4454Q368.1285,345.0961,368.616,344.7703Q369.10360000000003,344.4445,369.6066,344.14300000000003Q370.1095,343.84159999999997,370.6267,343.5652Q371.1438,343.2887,371.6739,343.038Q372.204,342.7873,372.7458,342.5629Q373.2875,342.3385,373.8396,342.141Q374.3917,341.9434,374.9529,341.7732Q375.514,341.603,376.0828,341.4605Q376.6516,341.318,377.2268,341.2036Q377.8019,341.0892,378.3819,341.0032Q378.962,340.9171,379.5455,340.8597Q380.1291,340.80219999999997,380.7148,340.7734Q381.3005,340.7446,381.8869,340.7446L393.6132,340.7446Z" fill-rule="evenodd" fill="url(#master_svg2_0_1268)" fill-opacity="1"/></g><g style="mix-blend-mode:passthrough"><path d="M349.7792,364L283,364Q282.509,364,282.0186,364.0240909Q281.5283,364.0481817,281.0397,364.0963055Q280.551,364.144429,280.0654,364.21647Q279.5797,364.28851,279.0982,364.384294Q278.6167,364.480078,278.1404,364.599375Q277.6641,364.718671,277.1943,364.861193Q276.7245,365.00371,276.2622,365.16912Q275.7999,365.33452,275.3463,365.52241Q274.8927,365.7103,274.4489,365.92021Q274.0051,366.13013,273.5721,366.36157Q273.1391,366.59302,272.71794,366.84543Q272.29682,367.09784,271.88859,367.37061Q271.48036,367.64338,271.08601,367.93585Q270.69166,368.22832,270.31213,368.53979Q269.93261,368.85126,269.56882,369.18098Q269.20503,369.51069,268.85786,369.85786Q268.51069,370.20503,268.18098,370.56882Q267.85126,370.93261,267.53979,371.31213Q267.22832,371.69166,266.93585,372.08601Q266.64338,372.48036,266.37061,372.88859Q266.09784,373.29682,265.84543,373.71794Q265.59302,374.1391,265.36157,374.5721Q265.13013,375.0051,264.92021,375.4489Q264.7103,375.8927,264.52241,376.3463Q264.33452,376.7999,264.16912,377.2622Q264.00371,377.7245,263.861193,378.1943Q263.718671,378.6641,263.599375,379.1404Q263.480078,379.6167,263.384294,380.0982Q263.28851,380.5797,263.21647,381.0654Q263.144429,381.551,263.0963055,382.0397Q263.0481817,382.5283,263.0240909,383.0186Q263,383.509,263,384L263,652Q263,652.491,263.0240909,652.981Q263.0481817,653.472,263.0963055,653.96Q263.144429,654.4490000000001,263.21647,654.935Q263.28851,655.4200000000001,263.384294,655.902Q263.480078,656.383,263.599375,656.86Q263.718671,657.336,263.861193,657.806Q264.00371,658.275,264.16912,658.738Q264.33452,659.2,264.52241,659.654Q264.7103,660.107,264.92021,660.5509999999999Q265.13013,660.995,265.36157,661.428Q265.59302,661.861,265.84543,662.2819999999999Q266.09784,662.703,266.37061,663.111Q266.64338,663.52,266.93585,663.914Q267.22832,664.308,267.53979,664.688Q267.85126,665.067,268.18098,665.431Q268.51069,665.7950000000001,268.85786,666.142Q269.20503,666.489,269.56882,666.819Q269.93261,667.149,270.31213,667.46Q270.69166,667.7719999999999,271.08601,668.0640000000001Q271.48036,668.357,271.88859,668.629Q272.29682,668.902,272.71794,669.155Q273.1391,669.4069999999999,273.5721,669.6379999999999Q274.0051,669.87,274.4489,670.0799999999999Q274.8927,670.29,275.3463,670.4780000000001Q275.7999,670.665,276.2622,670.831Q276.7245,670.996,277.1943,671.139Q277.6641,671.281,278.1404,671.4010000000001Q278.6167,671.52,279.0982,671.616Q279.5797,671.711,280.0654,671.784Q280.551,671.856,281.0397,671.904Q281.5283,671.952,282.0186,671.976Q282.509,672,283,672L555,672Q555.491,672,555.981,671.976Q556.472,671.952,556.96,671.904Q557.4490000000001,671.856,557.935,671.784Q558.4200000000001,671.711,558.902,671.616Q559.383,671.52,559.86,671.4010000000001Q560.336,671.281,560.806,671.139Q561.2760000000001,670.996,561.738,670.831Q562.2,670.665,562.654,670.4780000000001Q563.107,670.29,563.5509999999999,670.0799999999999Q563.995,669.87,564.428,669.6379999999999Q564.861,669.4069999999999,565.2819999999999,669.155Q565.703,668.902,566.111,668.629Q566.52,668.357,566.914,668.0640000000001Q567.308,667.7719999999999,567.688,667.46Q568.067,667.149,568.431,666.819Q568.7950000000001,666.489,569.142,666.142Q569.489,665.7950000000001,569.819,665.431Q570.149,665.067,570.46,664.688Q570.7719999999999,664.308,571.0640000000001,663.914Q571.357,663.52,571.629,663.111Q571.902,662.703,572.155,662.2819999999999Q572.4069999999999,661.861,572.6379999999999,661.428Q572.87,660.995,573.0799999999999,660.5509999999999Q573.29,660.107,573.4780000000001,659.654Q573.665,659.2,573.831,658.738Q573.996,658.275,574.139,657.806Q574.281,657.336,574.4010000000001,656.86Q574.52,656.383,574.616,655.902Q574.711,655.4200000000001,574.784,654.935Q574.856,654.4490000000001,574.904,653.96Q574.952,653.472,574.976,652.981Q575,652.491,575,652L575,384Q575,383.509,574.976,383.0186Q574.952,382.5283,574.904,382.0397Q574.856,381.551,574.784,381.0654Q574.711,380.5797,574.616,380.0982Q574.52,379.6167,574.4010000000001,379.1404Q574.281,378.6641,574.139,378.1943Q573.996,377.7245,573.831,377.2622Q573.665,376.7999,573.4780000000001,376.3463Q573.29,375.8927,573.0799999999999,375.4489Q572.87,375.0051,572.6379999999999,374.5721Q572.4069999999999,374.1391,572.155,373.71794Q571.902,373.29682,571.629,372.88859Q571.357,372.48036,571.0640000000001,372.08601Q570.7719999999999,371.69166,570.46,371.31213Q570.149,370.93261,569.819,370.56882Q569.489,370.20503,569.142,369.85786Q568.7950000000001,369.51069,568.431,369.18098Q568.067,368.85126,567.688,368.53979Q567.308,368.22832,566.914,367.93585Q566.52,367.64338,566.111,367.37061Q565.703,367.09784,565.2819999999999,366.84543Q564.861,366.59302,564.428,366.36157Q563.995,366.13013,563.5509999999999,365.92021Q563.107,365.7103,562.654,365.52241Q562.2,365.33452,561.738,365.16912Q561.2760000000001,365.00371,560.806,364.861193Q560.336,364.718671,559.86,364.599375Q559.383,364.480078,558.902,364.384294Q558.4200000000001,364.28851,557.935,364.21647Q557.4490000000001,364.144429,556.96,364.0963055Q556.472,364.0481817,555.981,364.0240909Q555.491,364,555,364L485.221,364Q486,367.20329,486,370.5Q486,371.17509,485.967,371.84936Q485.93399999999997,372.52363,485.868,373.19547Q485.801,373.86731,485.702,374.5351Q485.603,375.2029,485.472,375.865Q485.34000000000003,376.5271,485.176,377.182Q485.012,377.8368,484.81600000000003,378.4828Q484.62,379.1288,484.392,379.7645Q484.16499999999996,380.4001,483.90700000000004,381.0238Q483.648,381.6475,483.36,382.2578Q483.071,382.868,482.753,383.4634Q482.435,384.0588,482.08799999999997,384.63779999999997Q481.74,385.2169,481.365,385.77819999999997Q480.99,386.3395,480.58799999999997,386.8817Q480.18600000000004,387.424,479.75800000000004,387.9458Q479.329,388.4677,478.876,388.9679Q478.423,389.4681,477.945,389.9454Q477.46799999999996,390.4228,476.96799999999996,390.8762Q476.46799999999996,391.3295,475.946,391.7578Q475.424,392.1861,474.882,392.58820000000003Q474.339,392.9904,473.778,393.3654Q473.217,393.7405,472.63800000000003,394.0875Q472.05899999999997,394.4346,471.46299999999997,394.7528Q470.868,395.0711,470.25800000000004,395.3597Q469.647,395.6483,469.024,395.9067Q468.4,396.165,467.764,396.3925Q467.129,396.61990000000003,466.483,396.8159Q465.837,397.0118,465.182,397.1759Q464.527,397.3399,463.865,397.4716Q463.203,397.6033,462.53499999999997,397.7024Q461.86699999999996,397.8014,461.195,397.8676Q460.524,397.9337,459.849,397.9669Q459.175,398,458.5,398L376.5,398Q375.825,398,375.151,397.9669Q374.476,397.9337,373.805,397.8676Q373.133,397.8014,372.46500000000003,397.7024Q371.797,397.6033,371.135,397.4716Q370.473,397.3399,369.818,397.1759Q369.163,397.0118,368.517,396.8159Q367.871,396.61990000000003,367.236,396.3925Q366.6,396.165,365.976,395.9067Q365.352,395.6483,364.742,395.3597Q364.132,395.0711,363.53700000000003,394.7528Q362.9412,394.4346,362.36220000000003,394.0875Q361.7831,393.7405,361.22180000000003,393.3654Q360.6605,392.9904,360.1182,392.58820000000003Q359.576,392.1861,359.0542,391.7578Q358.5323,391.3295,358.0321,390.8762Q357.5319,390.4228,357.0546,389.9454Q356.5772,389.4681,356.1238,388.9679Q355.6705,388.4677,355.2422,387.9458Q354.8139,387.424,354.41179999999997,386.8817Q354.0096,386.3395,353.6346,385.77819999999997Q353.2595,385.2169,352.9125,384.63779999999997Q352.5654,384.0588,352.2472,383.4634Q351.9289,382.868,351.6403,382.2578Q351.3517,381.6475,351.0933,381.0238Q350.835,380.4001,350.6075,379.7645Q350.38009999999997,379.1288,350.1841,378.4828Q349.9882,377.8368,349.8241,377.182Q349.6601,376.5271,349.52840000000003,375.865Q349.3967,375.2029,349.2976,374.5351Q349.1986,373.86731,349.1324,373.19547Q349.0663,372.52363,349.0331,371.84936Q349,371.17509,349,370.5Q349,367.20329,349.7792,364Z" fill-rule="evenodd" fill="url(#master_svg3_0_1275)" fill-opacity="1"/></g><g style="mix-blend-mode:passthrough"><rect x="320" y="428" width="196" height="43" rx="10" fill="#FFFFFF" fill-opacity="1"/></g><g style="mix-blend-mode:passthrough"><g style="mix-blend-mode:passthrough"><rect x="338" y="509" width="148" height="12" rx="6" fill="#FFFFFF" fill-opacity="1"/></g><g style="mix-blend-mode:passthrough"><ellipse cx="326" cy="515" rx="6" ry="6" fill="#FFFFFF" fill-opacity="1"/></g></g><g style="mix-blend-mode:passthrough"><g style="mix-blend-mode:passthrough"><rect x="338" y="559" width="102" height="12" rx="6" fill="#FFFFFF" fill-opacity="1"/></g><g style="mix-blend-mode:passthrough"><ellipse cx="326" cy="565" rx="6" ry="6" fill="#FFFFFF" fill-opacity="1"/></g></g><g style="mix-blend-mode:passthrough"><ellipse cx="493" cy="275" rx="17" ry="17" fill="url(#master_svg4_0_1289)" fill-opacity="1"/></g><g style="mix-blend-mode:passthrough" transform="matrix(0,-1,1,0,-19,625)"><ellipse cx="313.5" cy="332.5" rx="10.5" ry="10.5" fill="url(#master_svg5_0_1289)" fill-opacity="1"/></g><g style="mix-blend-mode:passthrough" transform="matrix(0,-1,1,0,193,895)"><ellipse cx="554.5" cy="361.5" rx="10.5" ry="10.5" fill="url(#master_svg6_0_1293)" fill-opacity="1"/></g></g></g><g style="mix-blend-mode:passthrough"><g style="mix-blend-mode:passthrough"><path d="M345.9798,724.5417L345.9798,730.9954C345.9798,734.7689,345.6204,740.0098,342.6706,743.9329C343.4043,744.2773,344.737,745.2057,345.3359,745.7747C347.7767,742.5703,348.6602,738.0632,348.9297,734.125L355.14390000000003,734.125L355.14390000000003,745.6849L358.3633,745.6849L358.3633,734.125L363.7389,734.125L363.7389,731.3249L349.0645,731.3249L349.0645,731.0404L349.0645,726.8926C353.7663,726.5332,358.9173,725.7845,362.4961,724.6914L360.5645,721.9362C357.1204,723.1641,351.0859,724.1074,345.9798,724.5417ZM331.3053,755.8223L354.7246,755.8223L354.7246,760L331.3053,760L331.3053,755.8223ZM331.3053,753.2917L331.3053,749.4583L354.7246,749.4583L354.7246,753.2917L331.3053,753.2917ZM328.04102,746.748L328.04102,764.3874L331.3053,764.3874L331.3053,762.7702L354.7246,762.7702L354.7246,764.2975L358.1237,764.2975L358.1237,746.748L328.04102,746.748ZM322.51562,739.5755L322.80013,742.6452L333.3867,741.4922L333.3867,745.625L336.6061,745.625L336.6061,741.1178L343.6439,740.3392L343.599,737.7337L336.6061,738.4076L336.6061,735.0234L343.8685,735.0234L343.8685,732.2083L336.6061,732.2083L336.6061,729.2135L333.3867,729.2135L333.3867,732.2083L327.44206,732.2083C328.6849,730.7409,329.97266,729.0638,331.1706,727.2669L343.7786,727.2669L343.7786,724.5417L332.9225,724.5417L334.2103,722.1309L330.7513,721.09766C330.3021,722.2806,329.74805,723.4186,329.19401,724.5417L322.42578,724.5417L322.42578,727.2669L327.57682,727.2669C326.61849,728.7943,325.75,729.9922,325.33073,730.5013C324.50716,731.6094,323.71354,732.3581,322.97982,732.4928C323.39909,733.4062,323.9082,734.9785,324.08789,735.6523C324.50716,735.293,325.88477,735.0234,327.81641,735.0234L333.3867,735.0234L333.3867,738.737L322.51562,739.5755ZM371.2409,724.5417L371.2409,727.9557L386.5143,727.9557C386.3796,731.3099,386.2298,734.9036,385.6758,738.4375L368.3809,738.4375L368.3809,741.7917L385.0319,741.7917C383.1452,749.8926,378.6829,757.4694,367.7819,761.6621C368.6654,762.3509,369.66859999999997,763.5938,370.1328,764.4473C382.0072,759.7305,386.6042,751.0156,388.5358,741.7917L389.4941,741.7917L389.4941,757.9784999999999C389.4941,762.2161,390.7819,763.4141,395.5736,763.4141C396.5319,763.4141,403.1204,763.4141,404.16859999999997,763.4141C408.5859,763.4141,409.694,761.4824,410.15819999999997,753.9805C409.14,753.7559,407.62760000000003,753.1419,406.804,752.4831C406.5645,758.9219,406.2051,760,403.944,760C402.5215,760,396.9961,760,395.88800000000003,760C393.5521,760,393.0879,759.6855,393.0879,757.9784999999999L393.0879,741.7917L409.7389,741.7917L409.7389,738.4375L389.1348,738.4375C389.64390000000003,734.9036,389.8685,731.3548,389.9583,727.9557L407.1185,727.9557L407.1185,724.5417L371.2409,724.5417ZM416.5521,729.3333L416.5521,764.5072L419.9512,764.5072L419.9512,732.7474L433.248,732.7474C433.023,738.9616,431.31600000000003,746.7181,421.149,752.3184C421.973,752.9173,423.126,754.235,423.635,754.9987C429.849,751.2852,433.158,746.8079,434.895,742.3008C439.133,746.2988,443.775,751.1803,446.126,754.3848L448.986,752.0788C446.126,748.5449,440.51,743.0495,435.95799999999997,738.9167C436.423,736.7904,436.647,734.724,436.73699999999997,732.7474L450.124,732.7474L450.124,759.7904C450.124,760.6439,449.899,760.9134,448.986,760.9583C448.057,760.9583,444.928,761.0182,441.663,760.8685C442.173,761.8418,442.727,763.3991,442.861,764.3724C446.994,764.3724,449.85400000000004,764.3724,451.471,763.8184C453.029,763.2194,453.538,762.1113,453.538,759.8353L453.538,729.3333L436.782,729.3333L436.782,721.1875L433.293,721.1875L433.293,729.3333L416.5521,729.3333ZM473.214,730.8757C470.59299999999996,734.2897,466.281,737.6139000000001,462.08799999999997,739.7103C462.822,740.3242,464.02,741.7318,464.529,742.3757C468.706,739.9499,473.453,736.0716,476.493,731.9538L473.214,730.8757ZM484.998,732.9421C489.236,735.6074,494.432,739.6204,496.91700000000003,742.2858L499.403,739.9499C496.76800000000003,737.2845,491.48199999999997,733.4512,487.304,730.9206L484.998,732.9421ZM480.76,734.9935C476.38800000000003,741.9115,468.212,747.7663,459.692,750.9408C460.51599999999996,751.6895,461.44399999999996,752.9622,461.953,753.8307C464.06399999999996,752.9023,466.131,751.8841,468.10699999999997,750.7161L468.10699999999997,764.4473L471.477,764.4473L471.477,762.875L490.419,762.875L490.419,764.2676L493.923,764.2676L493.923,750.4167C495.80899999999997,751.5098,497.831,752.543,499.897,753.4863C500.361,752.4531,501.33500000000004,751.2702,502.158,750.5215000000001C494.701,747.5417,488.128,743.8132,482.932,737.7188L483.755,736.5059L480.76,734.9935ZM471.477,759.8053L471.477,751.5846L490.419,751.5846L490.419,759.8053L471.477,759.8053ZM471.701,748.5C475.25,746.0742,478.469,743.2292,481.09000000000003,740.0397C484.174,743.4987,487.48400000000004,746.2090000000001,491.062,748.5L471.701,748.5ZM477.91499999999996,721.68164C478.55899999999997,722.8197,479.248,724.2272,479.802,725.5L461.803,725.5L461.803,733.8854L465.173,733.8854L465.173,728.6745L496.678,728.6745L496.678,733.8854L500.227,733.8854L500.227,725.5L483.8,725.5C483.246,724.0475,482.33299999999997,722.2507,481.449,720.8431L477.91499999999996,721.68164Z" fill="#333333" fill-opacity="1"/></g><g style="mix-blend-mode:passthrough"><path d="M291.07227,811.625C293.30078,814.7012,295.57031,818.8984,296.5,821.7148L299.5215,820.293C298.5508,817.5586,296.2402,813.4844,293.92969,810.4492L291.07227,811.625ZM319.6328,810.0664C318.416,813.4023,316.0645,817.9961,314.2598,820.8945L316.9941,821.9746C318.8809,819.1992,321.2324,814.9199,323.0371,811.2285L319.6328,810.0664ZM290.82617,843.125L290.82617,846.2832L319.1816,846.2832L319.1816,848.0879L322.4902,848.0879L322.4902,823.875L308.6816,823.875L308.6816,808.5488L305.2363,808.5488L305.2363,823.875L291.66016,823.875L291.66016,827.0332L319.1816,827.0332L319.1816,833.1034999999999L293.05469,833.1034999999999L293.05469,836.125L319.1816,836.125L319.1816,843.125L290.82617,843.125ZM353.3613,822.5078L353.3613,840.1992L356.3008,840.1992L356.3008,822.5078L353.3613,822.5078ZM361.8926,821.1816L361.8926,844.0684C361.8926,844.7109,361.6738,844.875,361.0039,844.875C360.293,844.9297,358.0234,844.9297,355.46680000000003,844.8340000000001C355.9316,845.6816,356.4238,847.0215000000001,356.6016,847.8691C359.8281,847.9102,361.9746,847.8281,363.2324,847.3223C364.5312,846.8164,364.9961,845.9277,364.9961,844.1094L364.9961,821.1816L361.8926,821.1816ZM358.3652,808.2891C357.4355,810.3398,355.8359,813.1152,354.4141,815.125L341.8086,815.125L343.873,814.373C343.0664,812.6914,341.2617,810.2168,339.6758,808.4531L336.7363,809.5059C338.2402,811.2285,339.7988,813.498,340.5918,815.125L330.21479999999997,815.125L330.21479999999997,818.0234L367.7715,818.0234L367.7715,815.125L357.9824,815.125C359.1992,813.416,360.5527,811.3105,361.7285,809.3828L358.3652,808.2891ZM345.1719,831.6133L345.1719,836.125L335.84770000000003,836.125L335.84770000000003,831.6133L345.1719,831.6133ZM345.1719,829.125L335.84770000000003,829.125L335.84770000000003,824.8184L345.1719,824.8184L345.1719,829.125ZM332.8672,822.125L332.8672,847.6094L335.84770000000003,847.6094L335.84770000000003,838.6133L345.1719,838.6133L345.1719,844.1777C345.1719,844.7109,345.0078,844.875,344.4199,844.875C343.873,844.9297,341.9316,844.9297,339.7988,844.8340000000001C340.22270000000003,845.6406,340.6738,846.8574,340.8926,847.6504C343.709,847.6504,345.5957,847.6094,346.7305,847.1034999999999C347.9062,846.6523,348.2344,845.8047,348.2344,844.2188L348.2344,822.125L332.8672,822.125ZM393.721,811.625L393.721,817.5176C393.721,820.9629,393.39300000000003,825.748,390.699,829.3301C391.369,829.6445,392.586,830.4922,393.133,831.0117C395.361,828.0859,396.168,823.9707,396.414,820.375L402.08799999999997,820.375L402.08799999999997,830.9297L405.027,830.9297L405.027,820.375L409.93600000000004,820.375L409.93600000000004,817.8184L396.53700000000003,817.8184L396.53700000000003,817.5586L396.53700000000003,813.7715C400.83,813.4434,405.533,812.7598,408.801,811.7617L407.03700000000003,809.2461C403.89300000000003,810.3672,398.383,811.2285,393.721,811.625ZM380.3223,840.1855L401.705,840.1855L401.705,844L380.3223,844L380.3223,840.1855ZM380.3223,837.875L380.3223,834.375L401.705,834.375L401.705,837.875L380.3223,837.875ZM377.34180000000003,831.9004L377.34180000000003,848.0059L380.3223,848.0059L380.3223,846.5293L401.705,846.5293L401.705,847.9238L404.80899999999997,847.9238L404.80899999999997,831.9004L377.34180000000003,831.9004ZM372.2969,825.3516L372.5566,828.1543L382.22270000000003,827.1016L382.22270000000003,830.875L385.1621,830.875L385.1621,826.7598L391.58799999999997,826.0488L391.547,823.6699L385.1621,824.2852L385.1621,821.1953L391.793,821.1953L391.793,818.625L385.1621,818.625L385.1621,815.8906L382.22270000000003,815.8906L382.22270000000003,818.625L376.7949,818.625C377.9297,817.2852,379.1055,815.7539,380.1992,814.1133L391.711,814.1133L391.711,811.625L381.7988,811.625L382.9746,809.4238L379.8164,808.4805C379.4062,809.5605,378.9004,810.5996,378.3945,811.625L372.21479999999997,811.625L372.21479999999997,814.1133L376.918,814.1133C376.043,815.5078,375.25,816.6016,374.8672,817.0664C374.1152,818.0781,373.3906,818.7617,372.72069999999997,818.8848C373.1035,819.7188,373.5684,821.1543,373.7324,821.7695C374.1152,821.4414,375.373,821.1953,377.1367,821.1953L382.22270000000003,821.1953L382.22270000000003,824.5859L372.2969,825.3516ZM416.78499999999997,811.625L416.78499999999997,814.7422L430.73,814.7422C430.60699999999997,817.8047,430.471,821.0859,429.96500000000003,824.3125L414.174,824.3125L414.174,827.375L429.377,827.375C427.654,834.7715000000001,423.58000000000004,841.6895,413.627,845.5176C414.43399999999997,846.1465000000001,415.35,847.2812,415.773,848.0605C426.615,843.7539,430.812,835.7969,432.576,827.375L433.451,827.375L433.451,842.1543C433.451,846.0234,434.627,847.1172,439.002,847.1172C439.877,847.1172,445.89300000000003,847.1172,446.85,847.1172C450.88300000000004,847.1172,451.895,845.3534999999999,452.318,838.5039C451.389,838.2988,450.00800000000004,837.7383,449.256,837.1367C449.03700000000003,843.0156,448.709,844,446.645,844C445.346,844,440.301,844,439.289,844C437.156,844,436.73199999999997,843.7129,436.73199999999997,842.1543L436.73199999999997,827.375L451.93600000000004,827.375L451.93600000000004,824.3125L433.123,824.3125C433.58799999999997,821.0859,433.793,817.8457,433.875,814.7422L449.543,814.7422L449.543,811.625L416.78499999999997,811.625ZM458.156,816L458.156,848.1152L461.26,848.1152L461.26,819.1172L473.4,819.1172C473.195,824.791,471.637,831.873,462.35400000000004,836.9863C463.105,837.5332,464.158,838.7363,464.623,839.4336C470.297,836.043,473.318,831.9551,474.904,827.8398C478.773,831.4902,483.012,835.9473,485.158,838.873L487.77,836.7676C485.158,833.5409999999999,480.031,828.5234,475.875,824.75C476.299,822.8086,476.504,820.9219,476.586,819.1172L488.80899999999997,819.1172L488.80899999999997,843.8086C488.80899999999997,844.5879,488.60400000000004,844.8340000000001,487.77,844.875C486.922,844.875,484.06399999999996,844.9297,481.084,844.793C481.549,845.6816,482.055,847.1034999999999,482.178,847.9922C485.951,847.9922,488.562,847.9922,490.039,847.4863C491.461,846.9395,491.926,845.9277,491.926,843.8496L491.926,816L476.627,816L476.627,808.5625L473.44100000000003,808.5625L473.44100000000003,816L458.156,816ZM509.89099999999996,817.4082C507.498,820.5254,503.56100000000004,823.5605,499.73199999999997,825.4746C500.402,826.0352,501.496,827.3203,501.961,827.9082C505.775,825.6934,510.10900000000004,822.1523,512.885,818.3926L509.89099999999996,817.4082ZM520.65,819.2949C524.52,821.7285,529.264,825.3926,531.533,827.8262L533.803,825.6934C531.396,823.2598,526.5699999999999,819.7598,522.756,817.4492L520.65,819.2949ZM516.781,821.168C512.789,827.4844,505.324,832.8301,497.54499999999996,835.7284999999999C498.297,836.4121,499.145,837.5742,499.60900000000004,838.3672C501.53700000000003,837.5195,503.424,836.5898,505.22900000000004,835.5234L505.22900000000004,848.0605L508.305,848.0605L508.305,846.625L525.6,846.625L525.6,847.8965000000001L528.799,847.8965000000001L528.799,835.25C530.521,836.248,532.367,837.1914,534.254,838.0527C534.678,837.1094,535.566,836.0293,536.318,835.3457C529.51,832.625,523.508,829.2207,518.764,823.6562L519.516,822.5488L516.781,821.168ZM508.305,843.8223L508.305,836.3164L525.6,836.3164L525.6,843.8223L508.305,843.8223ZM508.51,833.5C511.75,831.2852,514.689,828.6875,517.082,825.7754C519.898,828.9336,522.92,831.4082,526.188,833.5L508.51,833.5ZM514.184,809.0137C514.771,810.0527,515.4,811.3379,515.906,812.5L499.473,812.5L499.473,820.1562L502.549,820.1562L502.549,815.3984L531.314,815.3984L531.314,820.1562L534.5550000000001,820.1562L534.5550000000001,812.5L519.557,812.5C519.0509999999999,811.1738,518.217,809.5332,517.41,808.248L514.184,809.0137Z" fill="#687383" fill-opacity="1"/></g></g></g></svg>